<?xml version="1.0" standalone="no"?>
<!DOCTYPE svg PUBLIC "-//W3C//DTD SVG 20010904//EN"
 "http://www.w3.org/TR/2001/REC-SVG-20010904/DTD/svg10.dtd">
<svg version="1.0" xmlns="http://www.w3.org/2000/svg"
 width="300.000000pt" height="300.000000pt" viewBox="0 0 300.000000 300.000000"
 preserveAspectRatio="xMidYMid meet">
<metadata>
Created by potrace 1.10, written by Peter Selinger 2001-2011
</metadata>
<g transform="translate(0.000000,300.000000) scale(0.100000,-0.100000)"
fill="#000000" stroke="none">
<path d="M1676 2690 c-414 -47 -762 -218 -1040 -511 -272 -286 -445 -694 -446
-1052 0 -67 3 -88 13 -85 8 3 14 41 19 119 13 221 73 436 179 637 68 129 105
184 203 301 269 321 687 532 1103 558 l103 6 0 -622 c0 -709 1 -715 73 -824
75 -111 169 -164 307 -174 237 -16 473 124 586 349 46 92 64 173 64 298 0 379
-217 724 -565 898 -179 89 -391 125 -599 102z m399 -59 c276 -72 514 -269 643
-531 41 -84 79 -224 90 -327 l8 -83 -488 0 -488 0 0 486 0 487 83 -7 c45 -3
114 -14 152 -25z m-156 -994 c-18 -12 -44 -38 -56 -56 l-23 -34 0 57 0 56 56
0 57 0 -34 -23z m281 -4 c0 -18 -3 -23 -8 -15 -5 6 -17 19 -28 27 -18 14 -18
14 9 15 23 0 27 -4 27 -27z m605 -52 c-43 -266 -262 -477 -525 -507 l-60 -7 0
297 0 296 299 0 298 0 -12 -79z m-755 -31 l0 -100 -104 0 -104 0 8 34 c19 84
103 163 178 165 21 1 22 -2 22 -99z m78 86 c25 -13 62 -63 62 -83 0 -9 -18
-13 -55 -13 l-55 0 0 55 c0 59 7 65 48 41z m-18 -164 c0 -24 -1 -25 -16 -10
-10 9 -14 24 -10 33 9 23 26 9 26 -23z m80 31 c0 -10 -42 -53 -52 -53 -4 0 -8
14 -8 30 0 27 3 30 30 30 17 0 30 -3 30 -7z m10 -53 c0 -5 -7 -10 -16 -10 -8
0 -12 5 -9 10 3 6 10 10 16 10 5 0 9 -4 9 -10z m0 -206 l0 -176 -47 7 c-144
21 -285 164 -306 308 l-6 37 180 0 179 0 0 -176z"  fill = "white" />
<path d="M456 1559 c-24 -19 -26 -26 -26 -94 0 -83 1 -85 86 -119 57 -23 59
-25 62 -65 3 -40 2 -41 -29 -41 -26 0 -31 3 -26 20 5 18 0 20 -47 20 l-52 0 4
-35 c6 -54 40 -75 119 -75 62 0 100 11 115 34 4 6 8 44 8 84 0 70 -1 73 -31
91 -17 10 -51 24 -75 31 -43 12 -44 13 -44 56 0 42 1 44 31 44 27 0 30 -3 27
-27 -3 -27 -1 -28 45 -30 l47 -2 0 44 c0 63 -30 85 -120 85 -53 0 -73 -4 -94
-21z m177 -22 c22 -26 18 -51 -10 -55 -14 -2 -23 3 -28 17 -3 12 -13 21 -21
21 -8 0 -13 4 -10 9 3 4 -6 6 -20 3 -25 -5 -41 -25 -39 -52 0 -8 -3 -18 -8
-21 -22 -15 32 -63 83 -73 3 -1 18 -10 33 -20 27 -18 28 -22 25 -90 -3 -67 -4
-71 -28 -74 -14 -2 -29 -7 -33 -11 -16 -16 -99 6 -118 30 -12 16 -14 26 -7 30
17 11 51 1 60 -16 5 -8 17 -15 28 -15 10 0 20 -3 23 -7 2 -5 2 -3 1 4 -2 7 5
15 15 18 23 7 27 72 5 96 -8 9 -39 27 -70 40 -30 13 -56 31 -59 39 -8 28 -9
95 -1 117 8 26 23 30 101 31 48 0 63 -4 78 -21z" fill = "coral"/>
<path d="M750 1545 c0 -34 1 -35 38 -35 l37 0 -3 -170 -3 -170 51 0 50 0 0
170 0 170 35 0 c33 0 35 2 35 35 l0 35 -120 0 -120 0 0 -35z m216 4 c3 -5 -7
-14 -21 -19 -49 -19 -51 -26 -49 -177 2 -140 -7 -186 -33 -170 -5 3 -13 77
-16 163 -5 125 -10 161 -23 175 -9 10 -21 17 -26 16 -6 -1 -12 3 -15 9 -5 14
174 17 183 3z" fill = "coral"/>
<path d="M1080 1375 l0 -205 105 0 105 0 0 35 0 35 -50 0 c-27 0 -50 -4 -50
-10 0 -5 10 -10 23 -10 13 0 32 -7 43 -15 17 -13 11 -14 -62 -15 -62 0 -83 3
-87 14 -3 8 -5 50 -3 93 2 43 4 120 5 171 l1 92 75 0 c43 0 75 -4 75 -10 0 -5
-7 -11 -15 -11 -8 -1 -23 -2 -33 -3 -48 -3 -72 -76 -41 -123 10 -17 23 -23 51
-23 21 0 38 -4 38 -10 0 -5 -3 -9 -7 -9 -21 3 -59 -2 -72 -10 -21 -13 -31 -97
-15 -119 12 -15 13 -8 14 47 l0 64 50 -6 50 -6 0 37 0 37 -50 -3 -50 -4 0 51
0 51 55 0 55 0 0 35 0 35 -105 0 -105 0 0 -205z" fill = "coral"/>
<path d="M1398 1368 l-3 -208 43 0 42 0 -1 63 c0 60 -15 170 -18 134 0 -11 -6
-15 -12 -11 -8 4 -8 1 -1 -12 5 -11 9 -48 8 -84 -1 -50 -5 -65 -16 -65 -10 0
-15 11 -16 30 -1 17 -2 48 -4 70 -1 22 -2 90 -1 151 1 104 2 112 22 117 17 5
24 -2 39 -36 10 -23 21 -60 25 -82 3 -22 15 -51 25 -65 l19 -25 -13 55 c-7 30
-21 82 -31 115 l-17 61 -44 0 -43 0 -3 -208z" fill = "coral"/>
<path d="M1599 1505 c-11 -38 -24 -83 -30 -99 -5 -16 -9 -36 -9 -45 0 -27 27
20 39 69 30 119 41 138 72 119 11 -7 14 -44 14 -184 1 -97 -3 -179 -8 -182
-18 -11 -27 24 -24 92 3 47 0 75 -8 82 -10 9 -13 -8 -14 -78 -1 -49 -4 -96 -7
-104 -5 -12 3 -15 40 -15 l46 0 0 208 0 207 -45 0 -46 0 -20 -70z" fill = "coral"/>
<path d="M1602 1348 c-7 -7 -12 -22 -12 -33 0 -12 -9 -32 -20 -45 -24 -28 -42
-17 -42 26 0 26 -18 54 -33 54 -3 0 -4 -8 -1 -17 3 -10 10 -37 16 -60 10 -38
14 -43 40 -43 34 0 40 7 56 77 13 58 13 58 -4 41z" fill = "coral"/>
<path d="M180 955 c0 -10 10 -15 31 -15 l31 0 -3 -81 -3 -82 32 -2 33 -3 -3
84 -3 84 33 0 c22 0 32 5 32 15 0 12 -17 15 -90 15 -73 0 -90 -3 -90 -15z m87
-132 c-2 -16 -4 -3 -4 27 0 30 2 43 4 28 2 -16 2 -40 0 -55z" fill = "coral"/>
<path d="M520 881 c0 -50 4 -93 10 -96 19 -12 160 -8 175 5 11 9 15 34 15 96
l0 84 -30 0 -30 0 0 -85 0 -85 -40 0 -40 0 0 85 0 85 -30 0 -30 0 0 -89z m31
-8 c-3 -68 -11 -67 -11 2 0 32 3 55 7 51 4 -3 6 -28 4 -53z m141 2 c-2 -14 -6
-25 -8 -25 -2 0 -4 11 -4 25 0 14 4 25 9 25 4 0 6 -11 3 -25z" fill = "coral" />
<path d="M880 955 c0 -10 10 -15 30 -15 l30 0 0 -83 0 -84 30 0 30 0 0 84 0
83 30 0 c20 0 30 5 30 15 0 12 -17 15 -90 15 -73 0 -90 -3 -90 -15z m100 -70
c0 -14 -4 -25 -8 -25 -4 0 -8 11 -8 25 0 14 4 25 8 25 4 0 8 -11 8 -25z m-3
-67 c-3 -7 -5 -2 -5 12 0 14 2 19 5 13 2 -7 2 -19 0 -25z" fill = "coral"/>
<path d="M1250 962 c-24 -7 -25 -12 -28 -86 -2 -44 1 -83 6 -88 14 -14 171
-11 188 3 21 17 19 142 -2 160 -18 15 -126 22 -164 11z m115 -92 l0 -70 -42 0
-43 0 0 70 0 70 43 0 42 0 0 -70z m32 38 c-3 -7 -5 -2 -5 12 0 14 2 19 5 13 2
-7 2 -19 0 -25z m-137 -39 c0 -40 -4 -58 -11 -54 -9 6 -11 90 -2 108 10 17 13
3 13 -54z" fill = "coral"/>
<path d="M1610 873 l0 -98 30 -1 c28 -1 30 1 30 37 0 32 3 39 20 39 12 0 26
-13 38 -36 15 -29 25 -37 51 -39 l32 -3 -25 43 c-25 41 -25 43 -6 48 16 4 20
14 20 46 0 51 -20 61 -121 61 l-69 0 0 -97z m130 38 c0 -29 -14 -41 -51 -41
-15 0 -19 7 -19 35 0 33 2 35 35 35 32 0 35 -3 35 -29z m27 -23 c-3 -8 -6 -5
-6 6 -1 11 2 17 5 13 3 -3 4 -12 1 -19z m-121 -35 c-10 -10 -19 5 -10 18 6 11
8 11 12 0 2 -7 1 -15 -2 -18z" fill = "coral"/>
<path d="M1980 872 l0 -99 30 0 30 0 0 99 0 98 -30 0 -30 0 0 -98z m33 -25 c4
-26 3 -46 -1 -43 -5 3 -9 26 -11 53 -3 59 4 54 12 -10z" fill = "coral" />
<path d="M2230 873 l0 -98 31 -1 31 -1 -4 63 c-2 35 -1 64 2 64 11 -1 60 -88
60 -108 0 -16 6 -19 31 -17 l30 2 2 97 2 96 -34 0 -34 0 7 -50 c4 -27 5 -50 2
-50 -2 0 -18 23 -36 50 -26 41 -37 50 -61 50 l-29 0 0 -97z m55 57 c3 -6 -3
-22 -14 -36 l-21 -27 0 30 c0 40 20 58 35 33z m102 -12 c-3 -8 -6 -5 -6 6 -1
11 2 17 5 13 3 -3 4 -12 1 -19z m0 -62 c-2 -34 -5 -42 -14 -34 -16 13 -16 33
-3 59 16 28 19 24 17 -25z" fill = "coral"/>
<path d="M2630 961 c-24 -7 -25 -11 -28 -89 -2 -60 1 -83 10 -87 7 -2 50 -5
96 -7 l82 -3 0 47 0 48 -51 0 c-36 0 -49 -4 -46 -12 2 -7 11 -12 21 -10 11 2
16 -4 16 -23 0 -22 -4 -25 -35 -25 l-35 0 0 70 0 70 35 0 c24 0 35 -5 35 -15
0 -10 10 -15 31 -15 26 0 30 3 27 22 -5 33 -89 48 -158 29z m9 -124 c1 -23 -3
-36 -9 -32 -5 3 -10 30 -9 58 0 38 3 47 9 32 5 -11 9 -37 9 -58z" fill = "coral"/>
</g>
</svg>
